<svg width="15" height="17" viewBox="0 0 15 17" fill="currentColor" xmlns="http://www.w3.org/2000/svg">
<path d="M13.8418 10.624C13.8831 10.7745 13.9323 10.9232 13.9902 11.0684L14.9111 13.3369H14.9189C15.1918 13.9889 14.7319 14.7302 14.0498 14.7305H10.0498C9.84513 16.0167 8.78764 16.9989 7.5 16.999C6.21231 16.9989 5.15487 16.0167 4.9502 14.7305H0.950195C0.285105 14.7303 -0.175247 14.0338 0.0634766 13.3818L0.992188 11.0596C1.04897 10.9174 1.09684 10.7714 1.1377 10.624H13.8418ZM7.61035 0.000976562C8.36298 0.0186914 8.83922 0.150285 8.83887 0.169922C11.6105 0.813103 13.6914 3.40433 13.6914 6.50391V9.52246C13.6914 9.53536 13.6923 9.54862 13.6924 9.56152H1.29004C1.29022 9.54564 1.29102 9.52955 1.29102 9.51367V6.49512C1.29102 3.39557 3.3722 0.80449 6.15234 0.152344C6.16331 0.149695 6.85751 -0.016676 7.61035 0.000976562Z"/>
</svg>
