<svg width="16" height="17" viewBox="0 0 16 17" fill="currentColor" xmlns="http://www.w3.org/2000/svg">
<g clip-path="url(#clip0_107_598)">
<path d="M13.07 0H2.65C1.19 0 0 1.19 0 2.65V13.45C0 14.91 1.19 16.1 2.65 16.1H13.07C14.53 16.1 15.72 14.91 15.72 13.45V2.65C15.72 1.19 14.53 0 13.07 0ZM13.97 13.45C13.97 13.95 13.57 14.35 13.07 14.35H2.65C2.15 14.35 1.75 13.95 1.75 13.45V6.78H13.97V13.45Z" fill="currentColor"/>
<path d="M3.50018 2.32031C2.91018 2.32031 2.43018 2.80031 2.43018 3.39031C2.43018 3.98031 2.91018 4.46031 3.50018 4.46031C4.09018 4.46031 4.57018 3.98031 4.57018 3.39031C4.57018 2.80031 4.09018 2.32031 3.50018 2.32031Z" fill="white"/>
<path d="M12.1999 3.02344H6.12988C5.84988 3.02344 5.62988 3.24344 5.62988 3.52344C5.62988 3.80344 5.84988 4.02344 6.12988 4.02344H12.1999C12.4799 4.02344 12.6999 3.80344 12.6999 3.52344C12.6999 3.24344 12.4799 3.02344 12.1999 3.02344Z" fill="white"/>
</g>
<defs>
<clipPath id="clip0_107_598">
<rect width="15.72" height="16.1" fill="white"/>
</clipPath>
</defs>
</svg>
