<svg width="18" height="13" viewBox="0 0 18 13" fill="currentColor" xmlns="http://www.w3.org/2000/svg">
<g clip-path="url(#clip0_107_576)">
<path d="M8.2002 6.56C8.5702 6.89 9.1302 6.89 9.5002 6.56L16.7402 0.14C16.5502 0.05 16.3502 0 16.1302 0H1.4602C1.2802 0 1.1102 0.04 0.950195 0.1L8.2002 6.56Z" fill="currentColor"/>
<path d="M17.5899 1.46375C17.5899 1.24375 17.5399 1.03375 17.4499 0.84375L11.4399 6.17375L17.3999 11.3438C17.5199 11.1337 17.5899 10.8938 17.5899 10.6438V1.46375Z" fill="currentColor"/>
<path d="M10.6899 6.85L10.1699 7.31C9.78992 7.64 9.32992 7.81 8.85992 7.81C8.38992 7.81 7.91992 7.64 7.53992 7.31L6.90992 6.75L0.919922 12C1.08992 12.07 1.26992 12.11 1.45992 12.11H16.1199C16.2999 12.11 16.4699 12.07 16.6299 12.01L10.6799 6.85H10.6899Z" fill="currentColor"/>
<path d="M0.19 0.75C0.07 0.96 0 1.2 0 1.46V10.64C0 10.89 0.07 11.11 0.17 11.32L6.15 6.07L0.19 0.75Z" fill="currentColor"/>
</g>
<defs>
<clipPath id="clip0_107_576">
<rect width="17.59" height="12.11" fill="white"/>
</clipPath>
</defs>
</svg>
